<svg width="448" height="512" viewBox="0 0 448 512" fill="none" xmlns="http://www.w3.org/2000/svg">
<g clip-path="url(#clip0_199_70)">
<path d="M392.5 352V343.5H384H352C321.394 343.5 296.5 318.606 296.5 288V176C296.5 106.524 323.385 64.8477 351.567 40.4234C365.773 28.1114 380.454 20.0641 392.486 15.1098C404.828 10.0278 413.626 8.5 416 8.5C429.006 8.5 439.5 18.9944 439.5 32V240V352V480C439.5 493.006 429.006 503.5 416 503.5C402.994 503.5 392.5 493.006 392.5 480V352ZM55.5 16V24.5H55.6V150.2C55.6 160.294 63.8056 168.5 73.9 168.5C83.495 168.5 91.2447 161.159 92.1594 151.829L92.1624 151.799L92.1651 151.77L104.565 15.3696L104.568 15.342L104.57 15.3143C104.897 11.4374 108.096 8.5 112 8.5C115.904 8.5 119.103 11.4374 119.43 15.3143L119.433 15.345L119.435 15.3757L131.935 151.776L131.938 151.803L131.941 151.829C132.855 161.159 140.605 168.5 150.2 168.5C160.294 168.5 168.5 160.294 168.5 150.2V16C168.5 12.1247 171.35 8.969 175.139 8.54801C178.953 8.12418 182.458 10.6093 183.306 14.358C183.306 14.3606 183.307 14.3632 183.307 14.3659L213.602 150.644C214.868 156.339 215.5 162.121 215.5 167.9C215.5 209.363 183.792 243.431 143.227 247.135L135.5 247.841V255.6V480C135.5 493.006 125.006 503.5 112 503.5C98.9944 503.5 88.5 493.006 88.5 480V255.6V247.841L80.773 247.135C40.2079 243.431 8.5 209.363 8.5 167.9C8.5 162.121 9.132 156.339 10.3974 150.645C10.3975 150.644 10.3975 150.644 10.3976 150.644L40.6876 14.3883C40.689 14.3823 40.6903 14.3763 40.6917 14.3703C41.5651 10.577 44.9858 8.13363 48.7726 8.54926C52.6834 8.97849 55.5 12.156 55.5 16Z" stroke="black" stroke-width="17"/>
</g>
<defs>
<clipPath id="clip0_199_70">
<rect width="448" height="512" fill="white"/>
</clipPath>
</defs>
</svg>
